<?xml version="1.0" standalone="no"?>
<!DOCTYPE svg PUBLIC "-//W3C//DTD SVG 1.1//EN" "http://www.w3.org/Graphics/SVG/1.1/DTD/svg11.dtd" >
<svg xmlns="http://www.w3.org/2000/svg">
<metadata>
This is a custom SVG webfont generated by Font Squirrel.
Copyright   : Copyright  1989 2002 Adobe Systems Incorporated  All Rights Reserved  1981 2002 Heidelberger Druckmaschinen AG All rights reserved
Designer    : Jackson Burke
Foundry URL : httpwwwadobecomtype
</metadata>
<defs>
<font id="TradeGothicLTStdBdCnNo.20Ob" horiz-adv-x="909" >
<font-face units-per-em="2048" ascent="1479" descent="-569" />
<missing-glyph horiz-adv-x="454" />
<glyph unicode=" "  horiz-adv-x="454" />
<glyph unicode="&#x09;" horiz-adv-x="454" />
<glyph unicode="&#xa0;" horiz-adv-x="454" />
<glyph unicode="!" horiz-adv-x="569" d="M164 0l53 242h242l-53 -242h-242zM297 434l186 1045h258l-276 -1045h-168z" />
<glyph unicode="&#x22;" horiz-adv-x="681" d="M285 918l125 561h192l-125 -561h-192zM610 918l125 561h193l-125 -561h-193z" />
<glyph unicode="#" d="M104 0l148 438h-135l37 160h155l92 283h-135l37 159h156l147 439h182l-147 -439h166l147 439h183l-148 -439h131l-37 -159h-147l-94 -283h127l-37 -160h-148l-145 -438h-184l147 438h-166l-145 -438h-187zM494 598h163l95 283h-164z" />
<glyph unicode="$" d="M113 231l198 129q18 -131 125 -163l107 481q-123 86 -185 186q-42 68 -41 153q0 39 9 83q33 147 139 253.5t256 125.5l41 180h123l-41 -180q170 -35 243 -187l-186 -133q-37 104 -102 119l-94 -424q92 -68 142 -119t82 -140q18 -50 18 -107q0 -44 -11 -91 q-35 -160 -147.5 -271.5t-272.5 -125.5l-53 -238h-123l53 238q-96 10 -167.5 73.5t-112.5 157.5zM541 1126q-6 -26 -6 -50q0 -83 63 -154l78 356q-51 -14 -88 -56.5t-47 -95.5zM559 197q127 45 158 190q8 32 8 59q0 30 -10 54q-18 45 -66 100z" />
<glyph unicode="%" horiz-adv-x="1593" d="M299 -20l1174 1519h153l-1173 -1519h-154zM356 1143q31 139 151 237.5t259 98.5t216 -99q55 -70 55 -161q0 -36 -9 -76q-31 -139 -151.5 -237.5t-260 -98.5t-215.5 98q-54 70 -54 161q0 37 9 77zM520 1143q-5 -21 -5 -40q0 -46 29 -82q40 -50 109 -50q72 0 134.5 51 t76.5 121q4 19 4 36q0 47 -28 85q-39 51 -111 51q-70 0 -131.5 -50t-77.5 -122zM893 336q33 139 152.5 237.5t259 98.5t216.5 -99q54 -69 53 -158q0 -38 -9 -79q-31 -139 -151 -237.5t-259 -98.5t-216 98q-55 70 -55 162q0 36 9 76zM1057 336q-4 -19 -4 -36q0 -47 28 -85 q39 -51 111 -51q70 0 131 50t78 122q5 21 5 40q0 45 -28 81q-39 51 -110 51q-70 0 -132.5 -50t-78.5 -122z" />
<glyph unicode="&#x26;" horiz-adv-x="1138" d="M178 326q47 205 287 417q-36 164 -37 285q0 69 12 123q33 156 137.5 252t260.5 96q139 0 201 -84q42 -56 42 -137q0 -40 -10 -86q-6 -31 -16.5 -58.5t-29.5 -58.5l-30.5 -51t-42 -54t-41 -47.5t-49.5 -49t-46 -42.5l-52 -46q-45 -40 -47 -42q45 -170 119 -301 q102 168 151 275l197 -55q-20 -47 -52 -105l-50 -87q-17 -30 -66 -105.5t-58 -90.5q51 -57 125 -69l-49 -225q-168 4 -262 112q-141 -113 -315 -112q-160 0 -237 96q-53 66 -53 159q0 43 11 91zM420 358q-5 -22 -6 -41q0 -39 22 -70q33 -46 98.5 -46t124.5 43 q-98 158 -135 297q-86 -95 -104 -183zM662 1206q-12 -50 -12 -113q0 -77 18 -171q49 49 78.5 83.5t61.5 87t42 99.5q10 44 9 76q0 84 -66 84q-98 -1 -131 -146z" />
<glyph unicode="'" horiz-adv-x="454" d="M334 918l125 561h192l-125 -561h-192z" />
<glyph unicode="(" horiz-adv-x="569" d="M213 662q100 459 426 837h197q-324 -375 -426 -837q-40 -182 -41 -351q0 -260 96 -487h-197q-96 228 -95 488q0 169 40 350z" />
<glyph unicode=")" horiz-adv-x="569" d="M27 -176q326 373 428 838q40 182 40 349q0 261 -98 488h197q96 -229 96 -491q0 -167 -39 -346q-49 -223 -161.5 -441.5t-266.5 -396.5h-196z" />
<glyph unicode="*" d="M338 1139l102 182q96 -70 230 -137q17 114 17 243q0 26 -1 52h193q-78 -174 -115 -295q141 57 291 137l20 -182q-25 0 -317 -35q102 -143 180 -219l-186 -113q-2 12 -62 287q-141 -205 -188 -287l-137 113q115 78 274 219q-268 33 -301 35z" />
<glyph unicode="+" horiz-adv-x="1228" d="M188 418l45 200h418l92 418h201l-92 -418h418l-45 -200h-418l-92 -418h-201l92 418h-418z" />
<glyph unicode="," horiz-adv-x="454" d="M43 -254l156 254h-93l54 242h241l-53 -242l-196 -254h-109z" />
<glyph unicode="-" horiz-adv-x="681" d="M190 457l43 188h502l-43 -188h-502z" />
<glyph unicode="." horiz-adv-x="454" d="M106 0l54 242h241l-53 -242h-242z" />
<glyph unicode="/" horiz-adv-x="569" d="M-47 -20l790 1519h201l-790 -1519h-201z" />
<glyph unicode="0" d="M180 385l156 709q47 211 154.5 308t295.5 97q190 0 254 -97q36 -56 37 -149q0 -69 -20 -159l-156 -709q-47 -211 -154.5 -308t-296 -97t-252.5 97q-37 56 -38 150q0 69 20 158zM408 322q-7 -30 -7 -54q0 -87 95 -88q117 0 149 142l184 835q7 31 8 55q0 87 -94 86 q-119 0 -151 -141z" />
<glyph unicode="1" d="M362 0l261 1171h-201l31 138q217 100 342 190h129l-332 -1499h-230z" />
<glyph unicode="2" d="M90 0l45 199l284 316l193 233q106 133 152 218q47 84 63 164q10 43 10 75q0 94 -85 93q-59 0 -100.5 -42t-57.5 -111l-23 -101h-241l16 70q37 168 162 276.5t299 108.5q152 0 226 -97q54 -70 54 -159q0 -34 -8 -72q-39 -180 -171 -366.5t-513 -595.5h449l-47 -209h-707z " />
<glyph unicode="3" d="M170 340l18 88h230l-23 -100q-7 -32 -7 -58q0 -90 91 -90q121 0 158 174l27 113q11 48 10 83q0 54 -24 81q-40 45 -158 45l45 201q115 0 171 48t85 177q16 68 16 111q0 23 -5 39q-13 46 -69 46q-57 0 -94 -33.5t-55 -117.5l-15 -62h-229l16 70q35 154 147.5 249t274.5 95 q156 0 219 -110q40 -70 41 -159q0 -52 -14 -110q-29 -135 -79 -212t-156 -128q98 -57 118 -137q7 -29 8 -66q0 -67 -24 -163q-49 -221 -163 -327.5t-302 -106.5q-274 0 -274 234q0 56 16 126z" />
<glyph unicode="4" d="M113 356l41 189l637 934h245l-207 -934h136l-41 -189h-136l-79 -356h-234l80 356h-442zM348 545h252l127 577h-4z" />
<glyph unicode="5" d="M172 315l25 113h229l-27 -119q-4 -20 -4 -38q0 -33 16 -56q24 -35 74 -35q125 0 164 180l74 336q7 28 7 51q0 31 -13 51q-23 34 -70 33q-98 0 -162 -112h-196q123 477 186 760h617l-56 -209h-399l-84 -320l2 -4q57 53 103.5 69.5t111.5 16.5q141 0 185 -101 q22 -50 22 -121q0 -73 -23 -167l-47 -205q-51 -236 -156.5 -347t-287.5 -111q-166 0 -247 80q-56 56 -56 156q0 45 12 99z" />
<glyph unicode="6" d="M180 385l156 709q47 211 154.5 308t295.5 97h7q145 0 213 -91q48 -65 48 -153q0 -39 -10 -84l-20 -90h-221l16 76q8 33 8 58q0 83 -84 83q-119 0 -151 -141l-76 -346q68 55 113 76.5t116 21.5q119 0 179 -74q38 -48 38 -130q0 -45 -12 -99l-39 -176q-53 -236 -161.5 -343 t-298.5 -107q-188 0 -253 97q-37 56 -38 150q0 69 20 158zM408 322q-7 -30 -7 -54q0 -87 95 -88q117 0 149 142l53 245q8 33 8 59q0 83 -81 83q-47 0 -148 -68z" />
<glyph unicode="7" d="M242 0l577 1270h-424l47 209h668l-31 -144l-598 -1335h-239z" />
<glyph unicode="8" d="M184 410q33 145 85.5 233t152.5 145q-80 69 -80 192q0 48 12 103q47 209 159 312.5t273.5 103.5t228.5 -103q39 -61 39 -158q0 -68 -20 -155q-43 -197 -198 -295q78 -57 91 -152q4 -26 3 -56q0 -76 -25 -170q-47 -209 -161.5 -319.5t-293 -110.5t-245.5 110 q-40 65 -40 165q0 69 19 155zM418 426q-16 -72 -16 -123q0 -123 94 -123q70 0 112.5 61.5t71.5 184.5q16 73 16 124q0 122 -92 122q-131 0 -186 -246zM579 940q15 -47 74 -47q57 0 94 47t62 156q13 65 13 107q0 29 -6 48q-15 47 -73 47q-59 0 -96 -48t-59 -154 q-15 -67 -15 -111q0 -27 6 -45z" />
<glyph unicode="9" d="M193 307l20 90h221l-16 -75q-7 -32 -8 -58q0 -84 86 -84q117 0 149 142l76 346q-68 -55 -113 -77t-116 -22q-119 0 -179 75q-38 48 -38 129q0 45 12 99l41 177q51 236 159.5 343t299 107t253.5 -97q36 -56 37 -149q0 -69 -20 -159l-156 -709q-47 -211 -154.5 -308 t-295.5 -97q-3 0 -7 -1q-145 0 -213 92q-48 65 -48 153q1 39 10 83zM539 911q-8 -33 -8 -58q0 -83 81 -83q47 0 148 68l69 319q7 31 8 55q0 87 -94 86q-119 0 -151 -141z" />
<glyph unicode=":" horiz-adv-x="454" d="M106 0l54 242h241l-53 -242h-242zM233 569l54 242h241l-53 -242h-242z" />
<glyph unicode=";" horiz-adv-x="454" d="M43 -254l156 254h-93l54 242h241l-53 -242l-196 -254h-109zM233 569l54 242h241l-53 -242h-242z" />
<glyph unicode="&#x3c;" horiz-adv-x="1228" d="M193 432l36 172l1133 432l-47 -213l-815 -305l680 -305l-47 -213z" />
<glyph unicode="=" horiz-adv-x="1228" d="M141 205l45 201h1037l-45 -201h-1037zM236 631l45 200h1036l-45 -200h-1036z" />
<glyph unicode="&#x3e;" horiz-adv-x="1228" d="M96 0l47 213l815 305l-679 305l47 213l940 -432l-37 -172z" />
<glyph unicode="?" horiz-adv-x="796" d="M254 0l53 242h242l-53 -242h-242zM338 1229q80 137 183.5 203.5t246.5 66.5q119 0 189 -80q52 -59 53 -137q0 -27 -6 -57q-16 -70 -52.5 -133.5t-61 -92t-85.5 -92.5q-51 -55 -83 -94t-69 -110.5t-55 -157.5l-25 -111h-196l39 172q35 160 184 355q10 12 31.5 40.5t32 41 t28 36t25.5 37.5l19 34q11 19 17.5 35.5t10.5 33.5q3 12 2 22q0 24 -12 43q-18 27 -56 27q-104 0 -180 -156z" />
<glyph unicode="@" horiz-adv-x="1638" d="M246 739q74 326 345 543t593 217q285 0 455 -175q127 -130 127 -312q0 -63 -15 -133q-27 -119 -87 -221.5t-133 -167t-154 -111.5t-147.5 -66.5t-113.5 -19.5q-49 0 -76 29q-19 21 -19 54q0 13 3 27l-4 3q-127 -113 -246 -113q-131 0 -203 100q-49 69 -49 156q0 40 10 84 q43 203 202 359.5t351 156.5q160 0 211 -133l56 106h166l-244 -526q-27 -53 -33 -80q-3 -14 -2 -24q0 -31 23 -31q90 0 187 108.5t132 266.5q16 71 16 132q0 145 -88 238q-125 133 -362 133q-260 0 -460 -171t-257 -433q-17 -79 -17 -148q0 -164 94 -281q134 -167 398 -167 q268 0 473 170h170q-137 -158 -318 -243.5t-372 -85.5q-332 0 -509 211q-125 150 -125 362q0 87 22 186zM741 659q-5 -26 -5 -49q0 -46 22 -81q33 -52 104 -52q106 0 200.5 98.5t119.5 210.5q5 25 5 48q0 45 -22 79q-33 51 -102 52q-106 0 -201.5 -98.5t-120.5 -207.5z" />
<glyph unicode="A" d="M25 0l600 1479h315l-55 -1479h-246l27 328h-279l-117 -328h-245zM473 549h205l41 635h-4z" />
<glyph unicode="B" horiz-adv-x="1024" d="M123 0l328 1479h376q323 0 323 -264q0 -58 -15 -128q-23 -102 -86.5 -188t-159.5 -121q141 -68 141 -234q0 -53 -14 -116q-43 -197 -165 -312.5t-327 -115.5h-401zM424 209h106q98 0 153.5 56.5t80.5 170.5q11 49 11 87q0 53 -21 85q-37 55 -148 56h-82zM569 872h93 q76 0 135 49.5t77 139.5q10 46 11 81q0 127 -131 128h-97z" />
<glyph unicode="C" horiz-adv-x="1024" d="M203 358l168 762q37 166 159.5 272.5t313.5 106.5q182 0 254 -115q46 -74 46 -174q0 -54 -14 -116l-22 -109h-254l25 115q9 39 9 70q0 38 -15 63q-26 45 -78 45q-74 0 -113 -39t-57 -125l-168 -749q-9 -40 -9 -70q0 -35 12 -55q22 -39 97 -39q66 0 101.5 36.5t54.5 112.5 l39 178h254l-37 -170q-37 -166 -158 -272t-303 -106q-190 0 -266 106q-51 72 -51 170q0 48 12 102z" />
<glyph unicode="D" horiz-adv-x="1024" d="M123 0l328 1479h376q323 0 323 -287q0 -71 -20 -160l-131 -586q-96 -446 -499 -446h-377zM424 209h88q102 0 151.5 45t75.5 162l144 647q12 54 12 93q0 45 -16 69q-31 45 -134 45h-88z" />
<glyph unicode="E" d="M123 0l328 1479h679l-49 -222h-426l-84 -380h328l-49 -222h-328l-96 -434h455l-50 -221h-708z" />
<glyph unicode="F" d="M123 0l328 1479h708l-49 -222h-455l-84 -380h340l-49 -222h-340l-145 -655h-254z" />
<glyph unicode="G" horiz-adv-x="1024" d="M203 358l168 762q37 166 156.5 272.5t299.5 106.5q182 0 256 -115q48 -75 49 -176q0 -54 -14 -114l-20 -95h-242q21 104 21 165q0 36 -8 58q-19 56 -97 56q-113 0 -147 -162l-168 -760q-9 -36 -9 -64q0 -91 93 -91q76 0 117.5 47t66.5 158l31 143h-162l45 201h416 l-166 -750h-123l-23 111q-76 -72 -137 -101.5t-147 -29.5q-154 0 -225 102q-46 66 -45 162q0 52 14 114z" />
<glyph unicode="H" horiz-adv-x="1024" d="M123 0l328 1479h254l-134 -602h271l133 602h254l-328 -1479h-254l146 655h-271l-145 -655h-254z" />
<glyph unicode="I" horiz-adv-x="569" d="M158 0l327 1479h254l-327 -1479h-254z" />
<glyph unicode="J" horiz-adv-x="569" d="M2 -20l49 221h53q133 0 160 123l256 1155h254l-262 -1184q-33 -154 -130 -234.5t-296 -80.5h-84z" />
<glyph unicode="K" d="M111 0l327 1479h254l-121 -547h4l388 547h254l-398 -551l105 -928h-258l-56 688h-4l-125 -164l-116 -524h-254z" />
<glyph unicode="L" horiz-adv-x="796" d="M111 0l327 1479h254l-278 -1258h399l-49 -221h-653z" />
<glyph unicode="M" horiz-adv-x="1251" d="M109 0l327 1479h334l-10 -865h4l371 865h333l-327 -1479h-221l256 1155h-5l-485 -1155h-123l27 1155h-4l-256 -1155h-221z" />
<glyph unicode="N" horiz-adv-x="1024" d="M123 0l328 1479h235l123 -846h4l186 846h230l-328 -1479h-221l-119 924h-4l-205 -924h-229z" />
<glyph unicode="O" horiz-adv-x="1024" d="M203 358l168 762q37 166 159.5 272.5t313 106.5t266.5 -106q51 -72 51 -171q0 -48 -12 -102l-168 -762q-37 -166 -160 -272t-313.5 -106t-265.5 106q-51 72 -51 170q0 48 12 102zM457 365q-9 -40 -9 -70q0 -35 12 -55q22 -39 97 -39q74 0 113 39t57 125l168 749 q9 40 8 69q0 35 -11 56q-22 39 -97 39q-74 0 -113 -39t-57 -125z" />
<glyph unicode="P" horiz-adv-x="1024" d="M123 0l328 1479h364q240 0 327 -102q55 -64 55 -180q0 -68 -19 -155q-51 -233 -184.5 -334.5t-370.5 -101.5h-111l-135 -606h-254zM557 815h98q125 0 182.5 48t86.5 179q13 58 12 101q0 52 -20 79q-36 48 -160 48h-99z" />
<glyph unicode="Q" horiz-adv-x="1024" d="M203 358l168 762q37 166 159.5 272.5t313 106.5t266.5 -106q51 -72 51 -171q0 -48 -12 -102l-168 -762q-27 -109 -86 -190q51 -53 106 -57l-49 -222q-80 0 -131 27t-96 111q-94 -47 -217 -47q-190 0 -266 106q-51 72 -51 170q0 48 12 102zM457 365q-9 -40 -9 -70 q0 -35 12 -55q22 -39 97 -39q57 0 90 22q-14 45 -49 80l49 225q59 -35 96 -90l152 676q9 40 8 69q0 35 -11 56q-22 39 -97 39q-74 0 -113 -39t-57 -125z" />
<glyph unicode="R" horiz-adv-x="1024" d="M123 0l328 1479h356q219 0 302 -103q51 -63 51 -176q0 -70 -19 -158q-66 -293 -262 -372l67 -670h-258l-45 612q-49 -6 -131 -6l-135 -606h-254zM557 815h90q104 0 157.5 49t82.5 178q14 61 13 105q0 48 -16 74q-32 49 -136 49h-91z" />
<glyph unicode="S" d="M143 389l250 35q-6 -40 -6 -74q0 -56 17 -92q28 -57 92 -57q68 0 114.5 34.5t61.5 100.5q5 26 5 50q0 41 -14 81q-24 63 -71 111l-102 106q-54 59 -98 117.5t-63 143.5q-9 39 -9 82q0 49 12 103q39 176 162.5 272.5t312.5 96.5q152 0 221 -98q55 -78 55 -195 q0 -31 -4 -65l-245 -27q3 23 2 42q0 56 -22 84q-30 38 -81 38q-125 0 -158 -145q-5 -20 -4 -41q0 -47 26 -96q38 -69 100.5 -131t123 -131.5t91.5 -167.5q18 -55 18 -114q0 -46 -10 -94q-41 -180 -172.5 -279t-313.5 -99q-170 0 -246 117q-54 84 -54 196q0 46 9 96z" />
<glyph unicode="T" horiz-adv-x="796" d="M270 0l279 1257h-246l49 222h746l-49 -222h-246l-279 -1257h-254z" />
<glyph unicode="U" horiz-adv-x="1024" d="M205 373l246 1106h254l-248 -1117q-37 -162 100 -161q133 0 170 161l248 1117h254l-246 -1106q-41 -188 -167 -290.5t-308 -102.5t-263 102.5t-40 290.5z" />
<glyph unicode="V" d="M328 0l18 1479h250l-43 -1026h4l412 1026h250l-637 -1479h-254z" />
<glyph unicode="W" horiz-adv-x="1366" d="M281 0l47 1479h237l-53 -942h4l375 942h209l-37 -942h4l350 942h238l-588 -1479h-213l33 977h-4l-389 -977h-213z" />
<glyph unicode="X" d="M29 0l463 774l-115 705h250l51 -469h4l246 469h250l-412 -705l115 -774h-250l-53 539h-5l-294 -539h-250z" />
<glyph unicode="Y" d="M328 0l137 614l-117 865h258l53 -564h5l294 564h259l-498 -865l-137 -614h-254z" />
<glyph unicode="Z" d="M90 0l53 242l699 1015h-416l49 222h672l-53 -242l-693 -1016h467l-49 -221h-729z" />
<glyph unicode="[" horiz-adv-x="569" d="M39 -156l362 1635h439l-23 -99h-242l-317 -1437h242l-23 -99h-438z" />
<glyph unicode="\" horiz-adv-x="569" d="M289 1499h200l119 -1519h-200z" />
<glyph unicode="]" horiz-adv-x="569" d="M23 -156l22 99h242l317 1437h-242l23 99h438l-362 -1635h-438z" />
<glyph unicode="^" horiz-adv-x="1228" d="M252 618l579 861h222l198 -861h-223l-141 619l-416 -619h-219z" />
<glyph unicode="_" horiz-adv-x="1024" d="M-57 -256l22 102h1024l-22 -102h-1024z" />
<glyph unicode="`" horiz-adv-x="454" d="M272 1528h277l96 -295h-170z" />
<glyph unicode="a" d="M121 227q39 176 180 290t420 210l14 66q7 30 7 54q0 87 -89 87q-74 0 -109.5 -39t-56.5 -117h-229q45 166 163 255t281 89q162 0 232 -74q47 -51 47 -137q0 -40 -10 -88l-156 -706q-8 -33 -12 -117h-219q2 14 3 43t3 43q-154 -106 -291 -106q-113 0 -158 68 q-29 44 -29 106q0 34 9 73zM358 268q-4 -18 -4 -32q0 -68 88 -68q82 0 176 102l66 289q-170 -86 -240 -150.5t-86 -140.5z" />
<glyph unicode="b" d="M111 0l327 1479h230l-105 -471l97.5 64.5t72.5 33.5t92 16q109 0 154 -80q26 -46 26 -115q0 -50 -14 -112l-117 -528q-33 -150 -112.5 -228.5t-188.5 -78.5q-84 0 -129 29.5t-88 105.5h-4l-24 -115h-217zM389 225q68 -57 119 -57q113 0 149 178l93 410q11 48 10 82 q0 96 -82 96q-53 0 -143 -57z" />
<glyph unicode="c" d="M184 389l72 324q90 410 446 409q284 0 284 -261q0 -61 -15 -136h-230l9 29q8 41 8 72q0 107 -96 108q-129 0 -166 -180l-90 -406q-10 -44 -10 -77q0 -103 96 -103q127 0 167 180l15 70h229l-6 -29q-90 -410 -446 -409q-284 0 -285 260q0 66 18 149z" />
<glyph unicode="d" d="M162 287l117 528q33 150 112.5 228.5t188.5 78.5q68 0 107.5 -24.5t105.5 -89.5l104 471h229l-327 -1479h-217l24 115h-4q-76 -76 -133 -105.5t-141 -29.5q-109 0 -154 79q-26 46 -26 116q0 50 14 112zM403 207q20 -39 72 -39q53 0 143 57l146 652q-68 57 -119 57 t-89 -39t-60 -139l-93 -410q-10 -50 -10 -85t10 -54z" />
<glyph unicode="e" d="M184 389l72 324q90 410 446 409q284 0 285 -261q0 -66 -18 -148l-45 -205h-484l-34 -160q-10 -44 -10 -77q0 -103 96 -103q127 0 167 180l5 25h229q-92 -393 -442 -393q-284 0 -285 260q0 66 18 149zM481 696h254l15 58q8 41 8 72q0 107 -96 108q-129 0 -166 -180z" />
<glyph unicode="f" horiz-adv-x="569" d="M156 0l202 913h-135l41 189h135l31 137q57 260 313 260h115l-41 -188h-65q-76 0 -93 -74l-30 -135h131l-41 -189h-131l-203 -913h-229z" />
<glyph unicode="g" d="M-2 -172q14 63 68.5 110.5t119.5 61.5v4q-76 33 -76 104q0 17 5 35q10 51 63 99.5t115 79.5q-76 61 -88 131q-3 16 -3 38q0 76 31 226q49 225 149.5 315t295.5 90q154 0 229 -118q63 72 103.5 95t109.5 23l-41 -190q-12 2 -37 2q-68 0 -118 -35q1 -19 1 -39 q0 -66 -16 -135q-53 -244 -158.5 -343t-285.5 -99h-74q-47 -10 -57 -52q-1 -6 -2 -11q0 -26 35 -38q38 -13 97 -13h9h15q59 0 125 -7q75 -8 136.5 -25.5t93.5 -74.5q19 -34 19 -81q0 -31 -8 -67q-59 -262 -530 -262q-174 0 -259 45q-70 37 -70 102q0 14 3 29zM256 -102 q-2 -10 -2 -19q0 -31 29 -45q37 -18 149.5 -18t157.5 18.5t55 63.5q2 10 2 18q0 31 -28 45q-37 18 -150 18.5t-158 -18t-55 -63.5zM435 517q15 -46 75 -46q68 0 101.5 46t64.5 185q21 97 21 149q0 22 -4 37q-13 46 -81 46q-59 0 -98 -49t-68 -183q-17 -88 -16 -139 q-1 -29 5 -46z" />
<glyph unicode="h" d="M111 0l327 1479h230l-107 -480q68 51 94.5 68.5t81 36t117.5 18.5q90 0 128 -61q23 -37 23 -92q0 -35 -10 -78l-196 -891h-230l189 854q3 15 3 27q0 53 -67 53q-51 0 -162 -70l-192 -864h-229z" />
<glyph unicode="i" horiz-adv-x="454" d="M113 0l243 1102h230l-244 -1102h-229zM393 1270l47 209h230l-47 -209h-230z" />
<glyph unicode="j" horiz-adv-x="454" d="M-78 -348l47 209h39q86 0 105 86l256 1153h229l-258 -1163q-63 -285 -330 -285h-88zM406 1270l47 209h229l-47 -209h-229z" />
<glyph unicode="k" d="M111 0l327 1479h230l-170 -766h4l338 389h245l-315 -348l98 -754h-231l-64 547h-4l-143 -162l-86 -385h-229z" />
<glyph unicode="l" horiz-adv-x="454" d="M113 0l327 1479h230l-328 -1479h-229z" />
<glyph unicode="m" horiz-adv-x="1366" d="M111 0l243 1102h217l-24 -111q6 4 31.5 22.5t31.5 22.5l28 19l28 18q6 4 24.5 14.5t26.5 12.5t24.5 9t28.5 8t27.5 3t31.5 2q82 0 116 -28.5t56 -102.5q98 78 159 104.5t126 26.5q106 0 148 -61q26 -38 25 -95q0 -34 -9 -75l-197 -891h-229l188 854q8 39 -9 59.5 t-54 20.5q-53 0 -160 -70l-192 -864h-230l189 854q3 15 3 27q0 53 -65 53q-51 0 -162 -70l-192 -864h-229z" />
<glyph unicode="n" d="M111 0l243 1102h217l-24 -111q129 92 180 111q55 20 127 20q90 0 128 -61q23 -37 23 -92q0 -35 -10 -78l-196 -891h-230l189 854q3 15 3 27q0 53 -67 53q-51 0 -162 -70l-192 -864h-229z" />
<glyph unicode="o" d="M184 389l72 324q90 410 446 409q284 0 285 -261q0 -66 -18 -148l-72 -324q-90 -410 -446 -409q-284 0 -285 260q0 66 18 149zM406 348q-10 -44 -10 -77q0 -103 96 -103q127 0 167 180l91 406q8 41 8 72q0 107 -96 108q-129 0 -166 -180z" />
<glyph unicode="p" d="M33 -348l321 1450h217l-24 -115h4q76 76 133 105.5t141 29.5q109 0 154 -80q26 -46 26 -115q0 -50 -14 -112l-117 -528q-33 -150 -112.5 -228.5t-188.5 -78.5q-68 0 -107.5 24.5t-105.5 89.5l-98 -442h-229zM389 225q68 -57 119 -57q113 0 149 178l93 410q11 48 10 82 q0 96 -82 96q-53 0 -143 -57z" />
<glyph unicode="q" d="M162 287l117 528q33 150 112.5 228.5t188.5 78.5q84 0 129 -29.5t88 -105.5h4l24 115h217l-321 -1450h-229l98 442l-97.5 -64.5t-72.5 -33.5t-92 -16q-109 0 -154 79q-26 46 -26 116q0 50 14 112zM403 207q20 -39 72 -39q53 0 143 57l146 652q-68 57 -119 57t-89 -39 t-60 -139l-93 -410q-10 -50 -10 -85t10 -54z" />
<glyph unicode="r" horiz-adv-x="681" d="M111 0l243 1102h219l-28 -129h4q123 150 293 149h47l-51 -239q-86 23 -144 22q-63 0 -116.5 -39t-69.5 -108l-168 -758h-229z" />
<glyph unicode="s" horiz-adv-x="796" d="M119 287l213 55q-1 -16 -1 -30q0 -144 113 -144q45 0 80 25.5t45 70.5q2 12 3 25q0 39 -25 77q-33 50 -86 94l-106.5 93t-81.5 120q-17 42 -16 89q0 31 7 65q27 129 133.5 212t237.5 83t202.5 -79.5t69.5 -213.5l-202 -32v14q0 123 -100.5 123t-119.5 -88q-2 -11 -2 -22 q0 -36 26 -71q34 -46 87 -89t105.5 -93.5t79.5 -127.5q16 -44 16 -92q0 -36 -9 -75q-31 -143 -136 -219.5t-251 -76.5q-147 0 -218 79q-65 73 -65 205q1 11 1 23z" />
<glyph unicode="t" horiz-adv-x="569" d="M199 227l151 686h-127l41 189h127l66 297h229l-65 -297h153l-41 -189h-153l-142 -634q-4 -18 -3 -32q0 -58 61 -59h75l-43 -196q-49 -12 -116 -12q-223 0 -223 168q0 36 10 79z" />
<glyph unicode="u" d="M158 211l196 891h230l-189 -854q-3 -15 -3 -27q0 -53 67 -53q53 0 164 70l190 864h229l-243 -1102h-217l24 111q-129 -92 -180 -111q-55 -20 -127 -20q-90 0 -128 61q-23 37 -23 92q0 35 10 78z" />
<glyph unicode="v" horiz-adv-x="796" d="M264 1102h234l-23 -737h4l307 737h234l-510 -1102h-223z" />
<glyph unicode="w" horiz-adv-x="1138" d="M225 0l31 1102h221l-51 -688h4l297 686h170l-29 -686h4l277 688h221l-498 -1102h-184l29 696h-4l-303 -696h-185z" />
<glyph unicode="x" horiz-adv-x="796" d="M25 0l374 584l-112 518h237l49 -307l191 307h237l-350 -514l119 -588h-238l-51 373h-4l-215 -373h-237z" />
<glyph unicode="y" horiz-adv-x="796" d="M2 -346l41 188h55q84 0 128 44t63 134q9 38 9 101q0 21 -1 45l-33 936h234l-9 -705h5l294 705h232l-551 -1184q-70 -147 -154 -205.5t-217 -58.5h-96z" />
<glyph unicode="z" horiz-adv-x="796" d="M61 0l41 188l582 725h-391l41 189h645l-41 -189l-590 -725h428l-41 -188h-674z" />
<glyph unicode="{" horiz-adv-x="569" d="M119 20l94 422q7 34 7 62q0 37 -13 61q-23 41 -72 41l25 119q49 0 92 42t59 122l92 414q23 102 80.5 149t175.5 47h226l-21 -98h-168q-76 0 -96 -103l-88 -397q-25 -111 -90.5 -169t-118.5 -64v-6q51 -8 89 -66q23 -35 23 -91q0 -37 -9 -83l-89 -397q-6 -25 -6 -44 q0 -58 58 -59h168l-23 -98h-225q-119 0 -156 47q-23 29 -23 80q0 30 9 69z" />
<glyph unicode="|" horiz-adv-x="864" d="M500 -569v2279h196v-2279h-196z" />
<glyph unicode="}" horiz-adv-x="569" d="M-23 -176l23 98h168q72 0 96 103l88 397q25 111 89.5 169t117.5 64l2 7q-53 8 -91 65q-22 34 -22 88q0 38 11 86l88 397q5 23 4 41q0 62 -55 62h-168l20 98h225q119 0 156 -47q23 -29 23 -80q0 -31 -9 -69l-94 -422q-7 -34 -7 -61q0 -38 14 -62q24 -41 73 -41l-27 -119 q-49 0 -92 -42t-59 -122l-92 -414q-23 -102 -80 -149t-176 -47h-226z" />
<glyph unicode="~" horiz-adv-x="1228" d="M242 526q61 55 87.5 77t91 52.5t128.5 30.5q82 0 213 -65q10 -4 38.5 -18.5t41 -19.5l34 -13.5t41 -11.5t39.5 -3q39 0 79 22.5t64.5 44t65.5 64.5l52 -176l-53 -42q-40 -32 -60.5 -46t-56 -34.5t-68.5 -29t-70 -8.5q-86 0 -194 68q-96 63 -221 63q-104 0 -201 -131z" />
<glyph unicode="&#xa1;" horiz-adv-x="569" d="M72 -377l276 1045h168l-186 -1045h-258zM354 860l54 242h241l-53 -242h-242z" />
<glyph unicode="&#xa2;" d="M94 -238l148 297q-90 67 -91 212q0 62 17 139l72 323q94 410 471 410q23 0 63 -4l131 262h152l-154 -307q99 -66 99 -218q0 -59 -15 -131h-213l6 29q8 35 9 63q0 34 -13 58l-340 -690q23 -16 62 -17q145 0 186 181l14 69h230l-6 -28q-90 -410 -465 -410q-53 0 -86 8 l-123 -246h-154zM387 303h4l309 649q-10 2 -32 2q-147 0 -189 -180l-90 -405q-2 -9 -2 -66z" />
<glyph unicode="&#xa3;" d="M68 -20l49 219q100 31 153.5 128t104.5 326h-158l37 172h129q0 252 18 336q76 338 412 338q168 0 226.5 -101.5t11.5 -312.5h-209q23 135 6 180.5t-82 45.5q-104 0 -131 -131q-12 -53 -15.5 -109.5t-3.5 -127.5t-2 -118h203l-37 -172h-184q-29 -115 -44 -170t-47 -123.5 t-73 -121.5q59 -49 131 -50q104 0 154 220h205l-27 -121q-33 -145 -122 -226t-218 -81q-139 0 -242 98q-147 -88 -245 -98z" />
<glyph unicode="&#xa4;" d="M106 408l117 94q-34 68 -34 145q0 45 12 92q31 133 129 238l-76 94l127 109l74 -99q125 74 256 74t221 -74l121 99l77 -109l-116 -94q34 -68 34 -145q0 -45 -12 -93q-31 -133 -129 -237l76 -94l-127 -109l-76 98q-125 -74 -254 -73q-133 0 -223 73l-119 -98zM389 739 q-7 -31 -7 -58q0 -63 36 -112q51 -70 147.5 -69.5t178 70t104.5 169.5q7 31 7 59q0 63 -36 111q-51 70 -147.5 70t-178 -70t-104.5 -170z" />
<glyph unicode="&#xa5;" d="M154 451l36 172h304l-19 163h-248l39 172h178l-71 521h205l71 -613h4l334 613h205l-301 -521h178l-39 -172h-248l-92 -163h303l-37 -172h-303l-100 -451h-197l101 451h-303z" />
<glyph unicode="&#xa6;" horiz-adv-x="862" d="M500 -397v796h194v-796h-194zM500 741v799h194v-799h-194z" />
<glyph unicode="&#xa7;" horiz-adv-x="1024" d="M180 2l176 117q37 -123 136 -123q117 0 141 102q2 11 2 22q0 41 -29 93q-37 66 -96 134l-117 140q-57 72 -91 156q-23 57 -23 109q0 25 6 49q23 100 97.5 161.5t180.5 71.5q-63 56 -63 146q0 32 8 69q27 113 117 181.5t233 68.5q90 0 157.5 -46t104.5 -118l-166 -102 q-2 4 -11 17.5t-13 18.5t-12.5 17t-14.5 18l-16 13q-10 8 -19.5 12t-20.5 7t-24 3q-106 0 -127 -94q-2 -10 -2 -21q0 -40 30 -88q38 -62 96 -125l117 -130q58 -68 91 -150q22 -55 22 -106q0 -26 -6 -52q-23 -102 -96.5 -170.5t-177.5 -70.5q60 -75 60 -162q0 -29 -7 -59 q-27 -121 -120 -198t-211 -77q-104 0 -173 41t-139 125zM474 808q0 -55 99 -194q109 -152 164 -151q39 0 73 26.5t42 63.5q1 4 1 9q0 51 -97 190q-106 152 -170 151q-41 0 -72 -25q-40 -33 -40 -70z" />
<glyph unicode="&#xa8;" horiz-adv-x="454" d="M233 1257l50 222h221l-49 -222h-222zM557 1257l49 222h221l-49 -222h-221z" />
<glyph unicode="&#xa9;" horiz-adv-x="1638" d="M205 739q49 223 197.5 399.5t345 268.5t403.5 92q319 0 502 -212q130 -151 130 -364q0 -86 -22 -184q-74 -336 -350 -547.5t-595.5 -211.5t-502.5 211q-130 151 -129 365q0 86 21 183zM406 739q-18 -80 -18 -152q0 -160 88 -278q128 -170 374 -170q244 0 448.5 170 t262.5 430q18 80 17 152q0 161 -89 278q-129 170 -373 170q-246 0 -449.5 -170t-260.5 -430zM578 743q45 199 189 326t341 127q145 0 228 -82q72 -71 73 -195q0 -18 -2 -38h-160q2 76 -46 115.5t-128 39.5q-113 0 -192.5 -78.5t-108.5 -209.5q-11 -46 -10 -87q0 -70 31 -124 q49 -86 155 -86q86 0 149.5 43t90.5 118h166q-59 -150 -181 -235.5t-262 -85.5q-193 0 -284 129q-63 88 -63 206q0 55 14 117z" />
<glyph unicode="&#xaa;" horiz-adv-x="544" d="M242 961q25 104 112.5 172.5t261.5 128.5l9 38q8 41 -4.5 58.5t-49.5 17.5q-76 0 -96 -84h-160q27 98 109 154q76 53 186 53q184 0 184 -129q0 -23 -6 -51l-94 -426q-2 -8 -3 -20.5t-2 -27t-1 -22.5h-143q2 8 2 21v22q-88 -55 -187 -55q-74 0 -103 41q-20 28 -20 67 q0 20 5 42zM408 987q-2 -8 -2 -15q0 -38 49 -38q59 0 102 61l33 150q-100 -45 -136 -79t-46 -79z" />
<glyph unicode="&#xab;" horiz-adv-x="1024" d="M252 553l305 313h203l-309 -315l161 -315h-196zM594 553l305 313h203l-309 -315l161 -315h-196z" />
<glyph unicode="&#xac;" horiz-adv-x="1228" d="M236 631l45 200h1036l-139 -628h-201l94 428h-835z" />
<glyph unicode="&#xad;" horiz-adv-x="681" d="M190 457l43 188h502l-43 -188h-502z" />
<glyph unicode="&#xae;" horiz-adv-x="1638" d="M205 739q49 223 197.5 399.5t345 268.5t403.5 92q319 0 502 -212q130 -151 130 -364q0 -86 -22 -184q-74 -336 -350 -547.5t-595.5 -211.5t-502.5 211q-130 151 -129 365q0 86 21 183zM406 739q-18 -80 -18 -152q0 -160 88 -278q128 -170 374 -170q244 0 448.5 170 t262.5 430q18 80 17 152q0 161 -89 278q-129 170 -373 170q-246 0 -449.5 -170t-260.5 -430zM586 315l188 850h322q166 0 235 -58q48 -40 49 -118q0 -34 -10 -76q-47 -209 -256 -227l123 -371h-186l-111 363h-106l-80 -363h-168zM864 809h146q90 0 134 28.5t56 90.5 q4 17 4 31q0 35 -24 52q-35 24 -129 23h-138z" />
<glyph unicode="&#xaf;" horiz-adv-x="454" d="M215 1305l29 131h602l-29 -131h-602z" />
<glyph unicode="&#xb0;" horiz-adv-x="819" d="M383 1206q27 123 130 208t228 85t192 -85q48 -61 47 -141q0 -32 -7 -67q-29 -123 -132.5 -208t-228.5 -85t-191 85q-47 59 -47 138q0 33 9 70zM510 1206q-5 -24 -5 -46q0 -46 23 -81q35 -51 109 -51t133 51t76 127q5 23 5 45q0 47 -26 82q-37 51 -108 51 q-74 0 -132.5 -52t-74.5 -126z" />
<glyph unicode="&#xb1;" horiz-adv-x="1228" d="M96 0l45 201h1037l-45 -201h-1037zM219 555l45 201h418l61 280h201l-61 -280h417l-45 -201h-417l-62 -281h-201l62 281h-418z" />
<glyph unicode="&#xb2;" horiz-adv-x="544" d="M162 598l37 166q195 178 293 299t118 215q2 10 3 19q0 38 -46 38q-29 0 -52 -20.5t-30 -48.5l-8 -39h-176l8 41q23 98 111 164.5t205 66.5q98 0 148 -57q37 -42 37 -97q0 -20 -5 -42q-29 -125 -106.5 -243t-278.5 -298h258l-35 -164h-481z" />
<glyph unicode="&#xb3;" horiz-adv-x="544" d="M219 805l12 51h177l-11 -43q-3 -13 -3 -23q0 -40 44 -40q57 0 74 79l10 52q7 29 7 49q0 27 -12 40q-22 22 -87 21l35 152q61 0 92 23.5t47 95.5q4 19 4 34q0 48 -41 47q-49 0 -63 -57l-8 -35h-172l10 41q20 92 95 149.5t181 57.5q113 0 159 -65q32 -45 32 -106 q0 -27 -6 -56q-18 -80 -49 -126t-93 -77q57 -35 70 -83q4 -17 4 -39q0 -41 -14 -99q-57 -262 -316 -262q-187 0 -187 148q0 32 9 71z" />
<glyph unicode="&#xb4;" horiz-adv-x="454" d="M354 1233l228 295h276l-334 -295h-170z" />
<glyph unicode="&#xb5;" d="M33 -348l321 1450h230l-189 -854q-3 -15 -3 -27q0 -53 67 -53q53 0 164 70l190 864h229l-243 -1102h-217l24 111q-129 -92 -184 -113q-41 -14 -86 -18l-74 -328h-229z" />
<glyph unicode="&#xb6;" horiz-adv-x="1024" d="M254 1094q86 385 512 385h590l-29 -131h-115l-335 -1512h-168l335 1512h-178l-336 -1512h-168l197 885q-176 0 -259 104q-57 72 -57 173q0 46 11 96z" />
<glyph unicode="&#xb7;" horiz-adv-x="454" d="M205 518q12 57 61 97t106.5 40t88.5 -40t18.5 -97t-61.5 -97t-106.5 -40t-88 39t-18.5 98z" />
<glyph unicode="&#xb8;" horiz-adv-x="454" d="M-115 -436l58 102q61 -35 125 -35q53 0 92 25t47 59q12 57 -49.5 69.5t-106.5 -9.5l-37 37l181 188h98l-111 -123q29 4 43 4q76 -4 122 -44t30 -111q-20 -94 -108.5 -151.5t-190.5 -57.5q-105 0 -193 47z" />
<glyph unicode="&#xb9;" horiz-adv-x="544" d="M326 598l151 686h-106l22 98q119 43 228 117h100l-199 -901h-196z" />
<glyph unicode="&#xba;" horiz-adv-x="544" d="M276 1059l43 194q51 246 285 246q188 0 188 -164q0 -37 -10 -82l-43 -194q-55 -248 -286 -248q-187 0 -187 161q-1 39 10 87zM440 1042q-5 -25 -5 -43q0 -56 46 -57q66 0 86 100l49 226q7 27 7 47q0 53 -48 53q-61 0 -86 -100z" />
<glyph unicode="&#xbb;" horiz-adv-x="1024" d="M172 236l305 315l-170 315h203l166 -313l-307 -317h-197zM514 236l305 315l-170 315h203l166 -313l-307 -317h-197z" />
<glyph unicode="&#xbc;" horiz-adv-x="1363" d="M147 -20l1176 1519h186l-1175 -1519h-187zM342 598l152 686h-107l23 98q115 41 227 115h100l-198 -899h-197zM803 205l37 164l379 518h194l-117 -527h78l-35 -155h-77l-45 -205h-168l45 205h-291zM997 360h131l62 273h-4z" />
<glyph unicode="&#xbd;" horiz-adv-x="1363" d="M131 -20l1176 1519h186l-1176 -1519h-186zM338 598l151 686h-106l23 98q119 43 227 117h100l-198 -901h-197zM815 0l37 166q197 178 295 299t119 215q2 10 2 18q0 39 -47 39q-29 0 -52.5 -20.5t-29.5 -48.5l-9 -39h-176l9 41q23 100 112.5 165.5t204.5 65.5q98 0 147 -58 q36 -42 36 -97q0 -20 -5 -41q-29 -125 -106.5 -243t-276.5 -298h258l-37 -164h-481z" />
<glyph unicode="&#xbe;" horiz-adv-x="1363" d="M186 -20l1176 1519h186l-1175 -1519h-187zM240 805l12 51h176l-10 -43q-3 -13 -3 -23q0 -40 44 -40q57 0 73 79l11 52q7 29 7 49q0 27 -12 40q-22 22 -87 21l34 152q61 0 92 23.5t48 95.5q4 19 3 34q0 48 -40 47q-49 0 -64 -57l-8 -35h-172l10 41q20 92 95 149.5 t182 57.5q113 0 159 -65q32 -45 31 -106q0 -27 -6 -56q-18 -80 -49 -126t-92 -77q57 -35 69 -83q4 -17 5 -39q0 -41 -15 -99q-57 -262 -315 -262q-187 0 -187 148q0 32 9 71zM803 205l37 164l379 518h194l-117 -527h78l-35 -155h-77l-45 -205h-168l45 205h-291zM997 360h131 l62 273h-4z" />
<glyph unicode="&#xbf;" horiz-adv-x="796" d="M39 -123q14 70 52 135.5t58.5 89t86.5 93.5q53 55 83.5 93t67.5 110.5t55 158.5l25 111h197l-37 -172q-37 -162 -187 -355q-10 -12 -41.5 -55t-44 -58.5t-33 -46t-29.5 -53t-16 -45.5q-3 -12 -2 -23q0 -24 13 -42q18 -27 55 -27q104 0 180 156l180 -74 q-154 -270 -430 -270q-119 0 -188 79q-51 58 -51 137q0 28 6 58zM492 860l53 242h241l-53 -242h-241z" />
<glyph unicode="&#xc0;" d="M25 0l600 1479h315l-55 -1479h-246l27 328h-279l-117 -328h-245zM473 549h205l41 635h-4zM571 1851h277l96 -295h-170z" />
<glyph unicode="&#xc1;" d="M25 0l600 1479h315l-55 -1479h-246l27 328h-279l-117 -328h-245zM473 549h205l41 635h-4zM653 1556l228 295h276l-334 -295h-170z" />
<glyph unicode="&#xc2;" d="M25 0l600 1479h315l-55 -1479h-246l27 328h-279l-117 -328h-245zM473 549h205l41 635h-4zM489 1556l263 295h225l131 -295h-188l-80 183l-162 -183h-189z" />
<glyph unicode="&#xc3;" d="M25 0l600 1479h315l-55 -1479h-246l27 328h-279l-117 -328h-245zM469 1573q102 242 264 242q47 0 125 -39q82 -41 115 -41q82 0 106 90h115q-102 -242 -266 -242q-49 0 -123 41q-70 39 -115 39q-82 0 -106 -90h-115zM473 549h205l41 635h-4z" />
<glyph unicode="&#xc4;" d="M25 0l600 1479h315l-55 -1479h-246l27 328h-279l-117 -328h-245zM473 549h205l41 635h-4zM532 1581l50 221h221l-49 -221h-222zM856 1581l49 221h221l-49 -221h-221z" />
<glyph unicode="&#xc5;" d="M25 0l600 1479h315l-55 -1479h-246l27 328h-279l-117 -328h-245zM473 549h205l41 635h-4zM637 1765q20 86 95 147.5t161 61.5t134 -61q34 -43 34 -98q0 -23 -6 -50q-18 -86 -94 -147.5t-162 -61.5t-133 62q-34 44 -34 101q0 22 5 46zM739 1765q-3 -13 -3 -25 q0 -29 18 -50q25 -31 69.5 -31t82.5 30.5t46 75.5q3 14 3 26q0 28 -16 50q-24 31 -69 31t-83 -31t-48 -76z" />
<glyph unicode="&#xc6;" horiz-adv-x="1478" d="M25 0l804 1479h871l-49 -222h-434l-84 -380h335l-49 -222h-336l-96 -434h463l-49 -221h-717l78 348h-295l-184 -348h-258zM586 569h225l160 725h-4z" />
<glyph unicode="&#xc7;" horiz-adv-x="1024" d="M170 -436l57 102q61 -35 125 -35q53 0 92 25t48 59q2 10 2 18q0 42 -52 52q-22 4 -41 4q-36 0 -65 -14l-37 37l162 170q-164 12 -229 116q-42 68 -41 158q0 48 12 102l168 762q37 166 159.5 272.5t313.5 106.5q182 0 254 -115q46 -74 46 -174q0 -54 -14 -116l-22 -109 h-254l25 115q9 39 9 70q0 38 -15 63q-26 45 -78 45q-74 0 -113 -39t-57 -125l-168 -749q-9 -40 -9 -70q0 -35 12 -55q22 -39 97 -39q66 0 101.5 36.5t54.5 112.5l39 178h254l-37 -170q-33 -152 -140.5 -256t-267.5 -120l-94 -105q29 4 43 4q76 -4 122 -44q34 -29 34 -76 q0 -17 -4 -35q-20 -94 -108.5 -151.5t-191.5 -57.5q-104 0 -192 47z" />
<glyph unicode="&#xc8;" d="M123 0l328 1479h679l-49 -222h-426l-84 -380h328l-49 -222h-328l-96 -434h455l-50 -221h-708zM596 1851h276l97 -295h-170z" />
<glyph unicode="&#xc9;" d="M123 0l328 1479h679l-49 -222h-426l-84 -380h328l-49 -222h-328l-96 -434h455l-50 -221h-708zM678 1556l227 295h277l-334 -295h-170z" />
<glyph unicode="&#xca;" d="M123 0l328 1479h679l-49 -222h-426l-84 -380h328l-49 -222h-328l-96 -434h455l-50 -221h-708zM514 1556l262 295h225l132 -295h-189l-80 183l-162 -183h-188z" />
<glyph unicode="&#xcb;" d="M123 0l328 1479h679l-49 -222h-426l-84 -380h328l-49 -222h-328l-96 -434h455l-50 -221h-708zM557 1581l49 221h221l-49 -221h-221zM881 1581l49 221h221l-49 -221h-221z" />
<glyph unicode="&#xcc;" horiz-adv-x="569" d="M158 0l327 1479h254l-327 -1479h-254zM401 1851h277l96 -295h-170z" />
<glyph unicode="&#xcd;" horiz-adv-x="569" d="M158 0l327 1479h254l-327 -1479h-254zM483 1556l228 295h276l-334 -295h-170z" />
<glyph unicode="&#xce;" horiz-adv-x="569" d="M158 0l327 1479h254l-327 -1479h-254zM319 1556l263 295h225l131 -295h-188l-80 183l-162 -183h-189z" />
<glyph unicode="&#xcf;" horiz-adv-x="569" d="M158 0l327 1479h254l-327 -1479h-254zM362 1581l50 221h221l-49 -221h-222zM686 1581l49 221h221l-49 -221h-221z" />
<glyph unicode="&#xd0;" horiz-adv-x="1024" d="M123 0l145 655h-82l50 222h81l134 602h376q323 0 323 -287q0 -71 -20 -160l-131 -586q-96 -446 -499 -446h-377zM424 209h88q102 0 151.5 45t75.5 162l144 647q12 54 12 93q0 45 -16 69q-31 45 -134 45h-88l-86 -393h152l-49 -222h-152z" />
<glyph unicode="&#xd1;" horiz-adv-x="1024" d="M123 0l328 1479h235l123 -846h4l186 846h230l-328 -1479h-221l-119 924h-4l-205 -924h-229zM526 1573q102 242 265 242q47 0 124 -39q82 -41 115 -41q82 0 107 90h114q-102 -242 -266 -242q-49 0 -123 41q-70 39 -114 39q-82 0 -107 -90h-115z" />
<glyph unicode="&#xd2;" horiz-adv-x="1024" d="M203 358l168 762q37 166 159.5 272.5t313 106.5t266.5 -106q51 -72 51 -171q0 -48 -12 -102l-168 -762q-37 -166 -160 -272t-313.5 -106t-265.5 106q-51 72 -51 170q0 48 12 102zM457 365q-9 -40 -9 -70q0 -35 12 -55q22 -39 97 -39q74 0 113 39t57 125l168 749 q9 40 8 69q0 35 -11 56q-22 39 -97 39q-74 0 -113 -39t-57 -125zM629 1851h276l96 -295h-170z" />
<glyph unicode="&#xd3;" horiz-adv-x="1024" d="M203 358l168 762q37 166 159.5 272.5t313 106.5t266.5 -106q51 -72 51 -171q0 -48 -12 -102l-168 -762q-37 -166 -160 -272t-313.5 -106t-265.5 106q-51 72 -51 170q0 48 12 102zM457 365q-9 -40 -9 -70q0 -35 12 -55q22 -39 97 -39q74 0 113 39t57 125l168 749 q9 40 8 69q0 35 -11 56q-22 39 -97 39q-74 0 -113 -39t-57 -125zM711 1556l227 295h276l-333 -295h-170z" />
<glyph unicode="&#xd4;" horiz-adv-x="1024" d="M203 358l168 762q37 166 159.5 272.5t313 106.5t266.5 -106q51 -72 51 -171q0 -48 -12 -102l-168 -762q-37 -166 -160 -272t-313.5 -106t-265.5 106q-51 72 -51 170q0 48 12 102zM457 365q-9 -40 -9 -70q0 -35 12 -55q22 -39 97 -39q74 0 113 39t57 125l168 749 q9 40 8 69q0 35 -11 56q-22 39 -97 39q-74 0 -113 -39t-57 -125zM547 1556l262 295h225l131 -295h-188l-80 183l-162 -183h-188z" />
<glyph unicode="&#xd5;" horiz-adv-x="1024" d="M203 358l168 762q37 166 159.5 272.5t313 106.5t266.5 -106q51 -72 51 -171q0 -48 -12 -102l-168 -762q-37 -166 -160 -272t-313.5 -106t-265.5 106q-51 72 -51 170q0 48 12 102zM457 365q-9 -40 -9 -70q0 -35 12 -55q22 -39 97 -39q74 0 113 39t57 125l168 749 q9 40 8 69q0 35 -11 56q-22 39 -97 39q-74 0 -113 -39t-57 -125zM526 1573q102 242 265 242q47 0 124 -39q82 -41 115 -41q82 0 107 90h114q-102 -242 -266 -242q-49 0 -123 41q-70 39 -114 39q-82 0 -107 -90h-115z" />
<glyph unicode="&#xd6;" horiz-adv-x="1024" d="M203 358l168 762q37 166 159.5 272.5t313 106.5t266.5 -106q51 -72 51 -171q0 -48 -12 -102l-168 -762q-37 -166 -160 -272t-313.5 -106t-265.5 106q-51 72 -51 170q0 48 12 102zM457 365q-9 -40 -9 -70q0 -35 12 -55q22 -39 97 -39q74 0 113 39t57 125l168 749 q9 40 8 69q0 35 -11 56q-22 39 -97 39q-74 0 -113 -39t-57 -125zM590 1581l49 221h221l-49 -221h-221zM913 1581l50 221h221l-49 -221h-222z" />
<glyph unicode="&#xd7;" horiz-adv-x="1228" d="M129 143l459 375l-293 377l172 141l293 -377l461 377l110 -141l-459 -377l293 -375l-174 -143l-293 377l-460 -377z" />
<glyph unicode="&#xd8;" horiz-adv-x="1024" d="M2 -246l221 361q-32 61 -32 141q0 48 12 102l168 762q37 166 159.5 272.5t313.5 106.5q127 0 200 -49l121 197h166l-188 -312q19 -51 19 -110q0 -49 -13 -105l-168 -762q-37 -166 -160 -272t-313 -106q-106 0 -176 34l-162 -260h-168zM459 248q12 -47 98 -47q74 0 113 39 t57 125l113 503h-4zM494 526h4l405 666q-2 86 -108 86q-74 0 -113 -39t-57 -125z" />
<glyph unicode="&#xd9;" horiz-adv-x="1024" d="M205 373l246 1106h254l-248 -1117q-8 -34 -8 -61q0 -101 108 -100q133 0 170 161l248 1117h254l-246 -1106q-41 -188 -167 -290.5t-308 -102.5t-263 102q-54 68 -54 174q0 54 14 117zM629 1851h276l96 -295h-170z" />
<glyph unicode="&#xda;" horiz-adv-x="1024" d="M205 373l246 1106h254l-248 -1117q-8 -34 -8 -61q0 -101 108 -100q133 0 170 161l248 1117h254l-246 -1106q-41 -188 -167 -290.5t-308 -102.5t-263 102q-54 68 -54 174q0 54 14 117zM711 1556l227 295h276l-333 -295h-170z" />
<glyph unicode="&#xdb;" horiz-adv-x="1024" d="M205 373l246 1106h254l-248 -1117q-8 -34 -8 -61q0 -101 108 -100q133 0 170 161l248 1117h254l-246 -1106q-41 -188 -167 -290.5t-308 -102.5t-263 102q-54 68 -54 174q0 54 14 117zM547 1556l262 295h225l131 -295h-188l-80 183l-162 -183h-188z" />
<glyph unicode="&#xdc;" horiz-adv-x="1024" d="M205 373l246 1106h254l-248 -1117q-8 -34 -8 -61q0 -101 108 -100q133 0 170 161l248 1117h254l-246 -1106q-41 -188 -167 -290.5t-308 -102.5t-263 102q-54 68 -54 174q0 54 14 117zM590 1581l49 221h221l-49 -221h-221zM913 1581l50 221h221l-49 -221h-222z" />
<glyph unicode="&#xdd;" d="M328 0l137 614l-117 865h258l53 -564h5l294 564h259l-498 -865l-137 -614h-254zM653 1556l228 295h276l-334 -295h-170z" />
<glyph unicode="&#xde;" horiz-adv-x="1024" d="M123 0l328 1479h254l-64 -287h111q240 0 326 -101q55 -64 55 -180q0 -68 -19 -155q-51 -233 -184 -335t-371 -102h-110l-72 -319h-254zM494 528h98q125 0 182 48.5t86 179.5q13 58 13 100q0 52 -20 79q-36 48 -161 48h-98z" />
<glyph unicode="&#xdf;" d="M111 0l245 1106q41 190 146.5 287.5t263.5 97.5q131 0 200.5 -54.5t74.5 -144.5q1 -18 1 -37q0 -76 -16 -168q-57 -254 -211 -274v-4q123 -42 123 -216q0 -75 -23 -175q-51 -231 -129.5 -324.5t-199.5 -93.5h-135l43 195q25 -6 53 -7q45 0 69.5 33t40.5 105l48 206 q7 34 7 62q0 98 -100 98l41 189q63 8 87 35.5t42 111.5l33 143q6 28 6 50q0 81 -84 82q-57 0 -91 -36t-50 -116l-256 -1151h-229z" />
<glyph unicode="&#xe0;" d="M121 227q39 176 180 290t420 210l14 66q7 30 7 54q0 87 -89 87q-74 0 -109.5 -39t-56.5 -117h-229q45 166 163 255t281 89q162 0 232 -74q47 -51 47 -137q0 -40 -10 -88l-156 -706q-8 -33 -12 -117h-219q2 14 3 43t3 43q-154 -106 -291 -106q-113 0 -158 68 q-29 44 -29 106q0 34 9 73zM358 268q-4 -18 -4 -32q0 -68 88 -68q82 0 176 102l66 289q-170 -86 -240 -150.5t-86 -140.5zM500 1528h276l96 -295h-170z" />
<glyph unicode="&#xe1;" d="M121 227q39 176 180 290t420 210l14 66q7 30 7 54q0 87 -89 87q-74 0 -109.5 -39t-56.5 -117h-229q45 166 163 255t281 89q162 0 232 -74q47 -51 47 -137q0 -40 -10 -88l-156 -706q-8 -33 -12 -117h-219q2 14 3 43t3 43q-154 -106 -291 -106q-113 0 -158 68 q-29 44 -29 106q0 34 9 73zM358 268q-4 -18 -4 -32q0 -68 88 -68q82 0 176 102l66 289q-170 -86 -240 -150.5t-86 -140.5zM582 1233l227 295h276l-333 -295h-170z" />
<glyph unicode="&#xe2;" d="M121 227q39 176 180 290t420 210l14 66q7 30 7 54q0 87 -89 87q-74 0 -109.5 -39t-56.5 -117h-229q45 166 163 255t281 89q162 0 232 -74q47 -51 47 -137q0 -40 -10 -88l-156 -706q-8 -33 -12 -117h-219q2 14 3 43t3 43q-154 -106 -291 -106q-113 0 -158 68 q-29 44 -29 106q0 34 9 73zM358 268q-4 -18 -4 -32q0 -68 88 -68q82 0 176 102l66 289q-170 -86 -240 -150.5t-86 -140.5zM418 1233l262 295h225l131 -295h-188l-80 182l-162 -182h-188z" />
<glyph unicode="&#xe3;" d="M121 227q39 176 180 290t420 210l14 66q7 30 7 54q0 87 -89 87q-74 0 -109.5 -39t-56.5 -117h-229q45 166 163 255t281 89q162 0 232 -74q47 -51 47 -137q0 -40 -10 -88l-156 -706q-8 -33 -12 -117h-219q2 14 3 43t3 43q-154 -106 -291 -106q-113 0 -158 68 q-29 44 -29 106q0 34 9 73zM358 268q-4 -18 -4 -32q0 -68 88 -68q82 0 176 102l66 289q-170 -86 -240 -150.5t-86 -140.5zM397 1249q102 242 265 242q47 0 124 -39q82 -41 115 -41q82 0 107 90h114q-102 -242 -266 -241q-49 0 -123 40q-70 39 -115 39q-82 0 -106 -90h-115z " />
<glyph unicode="&#xe4;" d="M121 227q39 176 180 290t420 210l14 66q7 30 7 54q0 87 -89 87q-74 0 -109.5 -39t-56.5 -117h-229q45 166 163 255t281 89q162 0 232 -74q47 -51 47 -137q0 -40 -10 -88l-156 -706q-8 -33 -12 -117h-219q2 14 3 43t3 43q-154 -106 -291 -106q-113 0 -158 68 q-29 44 -29 106q0 34 9 73zM358 268q-4 -18 -4 -32q0 -68 88 -68q82 0 176 102l66 289q-170 -86 -240 -150.5t-86 -140.5zM461 1257l49 222h221l-49 -222h-221zM784 1257l50 222h221l-49 -222h-222z" />
<glyph unicode="&#xe5;" d="M121 227q39 176 180 290t420 210l14 66q7 30 7 54q0 87 -89 87q-74 0 -109.5 -39t-56.5 -117h-229q45 166 163 255t281 89q162 0 232 -74q47 -51 47 -137q0 -40 -10 -88l-156 -706q-8 -33 -12 -117h-219q2 14 3 43t3 43q-154 -106 -291 -106q-113 0 -158 68 q-29 44 -29 106q0 34 9 73zM358 268q-4 -18 -4 -32q0 -68 88 -68q82 0 176 102l66 289q-170 -86 -240 -150.5t-86 -140.5zM565 1442q18 86 94 147.5t162 61.5t133 -62q34 -44 34 -101q0 -22 -5 -46q-18 -86 -94 -147.5t-162 -61.5t-133 61q-34 44 -34 101q0 23 5 47z M668 1442q-3 -13 -3 -25q0 -29 17 -51q25 -31 70 -31t82.5 31t46.5 76q3 14 3 26q0 28 -17 50q-24 31 -68.5 30.5t-82.5 -31t-48 -75.5z" />
<glyph unicode="&#xe6;" horiz-adv-x="1366" d="M121 227q39 176 180 290t418 210l14 66q7 31 7 54q0 87 -87 87q-74 0 -109.5 -39t-56.5 -117h-229q45 164 157.5 254t254.5 90q178 0 241 -102q102 102 267 102q267 0 266 -255q0 -68 -19 -154l-45 -205h-481l-35 -160q-10 -44 -10 -78q0 -102 94 -102q127 0 168 180 l4 25h230q-92 -393 -443 -393q-193 0 -248 143q-193 -143 -335 -143q-129 0 -180 67q-33 44 -32 108q0 33 9 72zM358 268q-4 -18 -4 -32q0 -68 88 -68q84 0 174 102l66 289q-168 -86 -238 -150.5t-86 -140.5zM940 696h252l14 58q8 41 9 72q0 107 -97 108q-127 0 -164 -180z " />
<glyph unicode="&#xe7;" d="M113 -436l57 102q61 -35 125 -35q53 0 92 25t47 59q2 10 2 18q0 42 -51 52q-22 4 -41 4q-36 0 -65 -14l-37 37l161 170q-237 19 -236 260q0 66 17 147l72 324q90 410 446 409q284 0 284 -261q0 -61 -15 -136h-230l9 29q8 41 8 72q0 107 -96 108q-129 0 -166 -180 l-90 -406q-10 -44 -10 -77q0 -103 96 -103q127 0 167 180l15 70h229l-6 -29q-82 -377 -393 -407l-94 -105q29 4 43 4q76 -4 121 -44q34 -29 34 -76q0 -17 -4 -35q-20 -94 -108 -151.5t-191 -57.5q-104 0 -192 47z" />
<glyph unicode="&#xe8;" d="M184 389l72 324q90 410 446 409q284 0 285 -261q0 -66 -18 -148l-45 -205h-484l-34 -160q-10 -44 -10 -77q0 -103 96 -103q127 0 167 180l5 25h229q-92 -393 -442 -393q-284 0 -285 260q0 66 18 149zM481 696h254l15 58q8 41 8 72q0 107 -96 108q-129 0 -166 -180z M500 1528h276l96 -295h-170z" />
<glyph unicode="&#xe9;" d="M184 389l72 324q90 410 446 409q284 0 285 -261q0 -66 -18 -148l-45 -205h-484l-34 -160q-10 -44 -10 -77q0 -103 96 -103q127 0 167 180l5 25h229q-92 -393 -442 -393q-284 0 -285 260q0 66 18 149zM481 696h254l15 58q8 41 8 72q0 107 -96 108q-129 0 -166 -180z M582 1233l227 295h276l-333 -295h-170z" />
<glyph unicode="&#xea;" d="M184 389l72 324q90 410 446 409q284 0 285 -261q0 -66 -18 -148l-45 -205h-484l-34 -160q-10 -44 -10 -77q0 -103 96 -103q127 0 167 180l5 25h229q-92 -393 -442 -393q-284 0 -285 260q0 66 18 149zM418 1233l262 295h225l131 -295h-188l-80 182l-162 -182h-188z M481 696h254l15 58q8 41 8 72q0 107 -96 108q-129 0 -166 -180z" />
<glyph unicode="&#xeb;" d="M184 389l72 324q90 410 446 409q284 0 285 -261q0 -66 -18 -148l-45 -205h-484l-34 -160q-10 -44 -10 -77q0 -103 96 -103q127 0 167 180l5 25h229q-92 -393 -442 -393q-284 0 -285 260q0 66 18 149zM461 1257l49 222h221l-49 -222h-221zM481 696h254l15 58q8 41 8 72 q0 107 -96 108q-129 0 -166 -180zM784 1257l50 222h221l-49 -222h-222z" />
<glyph unicode="&#xec;" horiz-adv-x="454" d="M113 0l243 1102h230l-244 -1102h-229zM272 1528h277l96 -295h-170z" />
<glyph unicode="&#xed;" horiz-adv-x="454" d="M113 0l243 1102h230l-244 -1102h-229zM354 1233l228 295h276l-334 -295h-170z" />
<glyph unicode="&#xee;" horiz-adv-x="454" d="M113 0l243 1102h230l-244 -1102h-229zM190 1233l263 295h225l131 -295h-188l-80 182l-162 -182h-189z" />
<glyph unicode="&#xef;" horiz-adv-x="454" d="M113 0l243 1102h230l-244 -1102h-229zM233 1257l50 222h221l-49 -222h-222zM557 1257l49 222h221l-49 -222h-221z" />
<glyph unicode="&#xf0;" d="M178 356l64 287q84 377 438 377q18 0 76 -4q2 14 1 29q0 57 -24 135l-233 -82l-23 147l207 72q-31 68 -72 113l187 49q45 -39 75 -95l242 86l31 -143l-213 -76q53 -153 53 -325q0 -135 -33 -283l-63 -287q-86 -377 -440 -376q-289 0 -289 245q-1 58 16 131zM401 334 q-8 -37 -8 -66q0 -100 99 -100q127 0 163 166l74 332q8 37 8 66q0 100 -98 99q-127 0 -164 -165z" />
<glyph unicode="&#xf1;" d="M111 0l243 1102h217l-24 -111q129 92 180 111q55 20 127 20q90 0 128 -61q23 -37 23 -92q0 -35 -10 -78l-196 -891h-230l189 854q3 15 3 27q0 53 -67 53q-51 0 -162 -70l-192 -864h-229zM397 1249q102 242 265 242q47 0 124 -39q82 -41 115 -41q82 0 107 90h114 q-102 -242 -266 -241q-49 0 -123 40q-70 39 -115 39q-82 0 -106 -90h-115z" />
<glyph unicode="&#xf2;" d="M184 389l72 324q90 410 446 409q284 0 285 -261q0 -66 -18 -148l-72 -324q-90 -410 -446 -409q-284 0 -285 260q0 66 18 149zM406 348q-10 -44 -10 -77q0 -103 96 -103q127 0 167 180l91 406q8 41 8 72q0 107 -96 108q-129 0 -166 -180zM500 1528h276l96 -295h-170z" />
<glyph unicode="&#xf3;" d="M184 389l72 324q90 410 446 409q284 0 285 -261q0 -66 -18 -148l-72 -324q-90 -410 -446 -409q-284 0 -285 260q0 66 18 149zM406 348q-10 -44 -10 -77q0 -103 96 -103q127 0 167 180l91 406q8 41 8 72q0 107 -96 108q-129 0 -166 -180zM582 1233l227 295h276l-333 -295 h-170z" />
<glyph unicode="&#xf4;" d="M184 389l72 324q90 410 446 409q284 0 285 -261q0 -66 -18 -148l-72 -324q-90 -410 -446 -409q-284 0 -285 260q0 66 18 149zM406 348q-10 -44 -10 -77q0 -103 96 -103q127 0 167 180l91 406q8 41 8 72q0 107 -96 108q-129 0 -166 -180zM418 1233l262 295h225l131 -295 h-188l-80 182l-162 -182h-188z" />
<glyph unicode="&#xf5;" d="M184 389l72 324q90 410 446 409q284 0 285 -261q0 -66 -18 -148l-72 -324q-90 -410 -446 -409q-284 0 -285 260q0 66 18 149zM397 1249q102 242 265 242q47 0 124 -39q82 -41 115 -41q82 0 107 90h114q-102 -242 -266 -241q-49 0 -123 40q-70 39 -115 39q-82 0 -106 -90 h-115zM406 348q-10 -44 -10 -77q0 -103 96 -103q127 0 167 180l91 406q8 41 8 72q0 107 -96 108q-129 0 -166 -180z" />
<glyph unicode="&#xf6;" d="M184 389l72 324q90 410 446 409q284 0 285 -261q0 -66 -18 -148l-72 -324q-90 -410 -446 -409q-284 0 -285 260q0 66 18 149zM406 348q-10 -44 -10 -77q0 -103 96 -103q127 0 167 180l91 406q8 41 8 72q0 107 -96 108q-129 0 -166 -180zM461 1257l49 222h221l-49 -222 h-221zM784 1257l50 222h221l-49 -222h-222z" />
<glyph unicode="&#xf7;" horiz-adv-x="1228" d="M188 418l45 200h1037l-45 -200h-1037zM471 94q16 68 74.5 116t126 48t104.5 -48q27 -35 27 -79q0 -17 -4 -37q-16 -68 -74.5 -116t-126.5 -48t-104 48q-27 35 -27 80q0 17 4 36zM659 942q16 68 75 116t126.5 48t104.5 -48q27 -35 26 -80q0 -17 -4 -36q-16 -68 -74.5 -116 t-126 -48t-104.5 48q-27 35 -27 80q0 17 4 36z" />
<glyph unicode="&#xf8;" d="M31 -246l188 314q-53 66 -53 176q0 65 18 145l72 324q90 410 446 409q80 0 142 -22l133 223h139l-174 -293q46 -63 46 -166q0 -67 -19 -151l-72 -324q-90 -410 -446 -409q-80 0 -138 22l-147 -248h-135zM406 354h4l327 551q-23 29 -75 29q-129 0 -166 -180zM420 193 q27 -25 72 -25q127 0 167 180l82 375h-4z" />
<glyph unicode="&#xf9;" d="M158 211l196 891h230l-189 -854q-3 -15 -3 -27q0 -53 67 -53q53 0 164 70l190 864h229l-243 -1102h-217l24 111q-129 -92 -180 -111q-55 -20 -127 -20q-90 0 -128 61q-23 37 -23 92q0 35 10 78zM500 1528h276l96 -295h-170z" />
<glyph unicode="&#xfa;" d="M158 211l196 891h230l-189 -854q-3 -15 -3 -27q0 -53 67 -53q53 0 164 70l190 864h229l-243 -1102h-217l24 111q-129 -92 -180 -111q-55 -20 -127 -20q-90 0 -128 61q-23 37 -23 92q0 35 10 78zM582 1233l227 295h276l-333 -295h-170z" />
<glyph unicode="&#xfb;" d="M158 211l196 891h230l-189 -854q-3 -15 -3 -27q0 -53 67 -53q53 0 164 70l190 864h229l-243 -1102h-217l24 111q-129 -92 -180 -111q-55 -20 -127 -20q-90 0 -128 61q-23 37 -23 92q0 35 10 78zM418 1233l262 295h225l131 -295h-188l-80 182l-162 -182h-188z" />
<glyph unicode="&#xfc;" d="M158 211l196 891h230l-189 -854q-3 -15 -3 -27q0 -53 67 -53q53 0 164 70l190 864h229l-243 -1102h-217l24 111q-129 -92 -180 -111q-55 -20 -127 -20q-90 0 -128 61q-23 37 -23 92q0 35 10 78zM461 1257l49 222h221l-49 -222h-221zM784 1257l50 222h221l-49 -222h-222z " />
<glyph unicode="&#xfd;" horiz-adv-x="796" d="M2 -346l41 188h55q84 0 128 44t63 134q9 38 9 101q0 21 -1 45l-33 936h234l-9 -705h5l294 705h232l-551 -1184q-70 -147 -154 -205.5t-217 -58.5h-96zM526 1233l228 295h276l-334 -295h-170z" />
<glyph unicode="&#xfe;" d="M33 -348l405 1827h230l-107 -482h4q66 68 122 96.5t138 28.5q109 0 154 -80q26 -46 26 -115q0 -50 -14 -112l-117 -528q-33 -150 -112.5 -228.5t-188.5 -78.5q-68 0 -107.5 24.5t-105.5 89.5l-98 -442h-229zM389 225q68 -57 119 -57q113 0 149 178l93 410q11 48 10 82 q0 96 -82 96q-53 0 -143 -57z" />
<glyph unicode="&#xff;" horiz-adv-x="796" d="M2 -346l41 188h55q84 0 128 44t63 134q9 38 9 101q0 21 -1 45l-33 936h234l-9 -705h5l294 705h232l-551 -1184q-70 -147 -154 -205.5t-217 -58.5h-96zM406 1257l49 222h221l-49 -222h-221zM729 1257l49 222h221l-49 -222h-221z" />
<glyph unicode="&#x152;" horiz-adv-x="1478" d="M223 451l127 577q49 219 184.5 335t346.5 116h819l-49 -222h-443l-84 -380h344l-49 -222h-344l-96 -434h471l-49 -221h-848q-211 0 -295 116q-53 73 -53 187q0 67 18 148zM469 420q-9 -41 -9 -73q0 -122 124 -122q141 0 176 154l162 727q7 30 6 54q0 99 -115 100 q-156 0 -201 -195z" />
<glyph unicode="&#x153;" horiz-adv-x="1366" d="M184 389l72 324q43 190 147.5 299.5t274.5 109.5q199 0 235 -125q100 125 270.5 125t227.5 -109q33 -63 33 -152q0 -67 -19 -148l-45 -205h-469l-34 -160q-13 -55 -13 -92q0 -27 6 -45q16 -43 78 -43q127 0 168 180l4 25h230q-43 -184 -147.5 -288.5t-270.5 -104.5 q-176 0 -219 126q-98 -127 -287 -126q-170 0 -227 109q-33 63 -33 152q0 66 18 148zM406 348q-10 -44 -10 -77q0 -103 96 -103q115 0 155 180l90 406q9 44 9 78q0 102 -84 102q-129 0 -166 -180zM952 696h240l14 58q8 41 9 72q0 107 -97 108q-61 0 -96 -42t-55 -138z" />
<glyph unicode="&#x178;" d="M328 0l137 614l-117 865h258l53 -564h5l294 564h259l-498 -865l-137 -614h-254zM532 1581l50 221h221l-49 -221h-222zM856 1581l49 221h221l-49 -221h-221z" />
<glyph unicode="&#x2c6;" horiz-adv-x="454" d="M190 1233l263 295h225l131 -295h-188l-80 182l-162 -182h-189z" />
<glyph unicode="&#x2dc;" horiz-adv-x="454" d="M170 1249q102 242 264 242q47 0 125 -39q82 -41 115 -41q82 0 106 90h115q-102 -242 -266 -241q-49 0 -123 40q-70 39 -115 39q-82 0 -106 -90h-115z" />
<glyph unicode="&#x2000;" horiz-adv-x="987" />
<glyph unicode="&#x2001;" horiz-adv-x="1974" />
<glyph unicode="&#x2002;" horiz-adv-x="987" />
<glyph unicode="&#x2003;" horiz-adv-x="1974" />
<glyph unicode="&#x2004;" horiz-adv-x="657" />
<glyph unicode="&#x2005;" horiz-adv-x="493" />
<glyph unicode="&#x2006;" horiz-adv-x="327" />
<glyph unicode="&#x2007;" horiz-adv-x="327" />
<glyph unicode="&#x2008;" horiz-adv-x="245" />
<glyph unicode="&#x2009;" horiz-adv-x="393" />
<glyph unicode="&#x200a;" horiz-adv-x="108" />
<glyph unicode="&#x2010;" horiz-adv-x="681" d="M190 457l43 188h502l-43 -188h-502z" />
<glyph unicode="&#x2011;" horiz-adv-x="681" d="M190 457l43 188h502l-43 -188h-502z" />
<glyph unicode="&#x2012;" horiz-adv-x="681" d="M190 457l43 188h502l-43 -188h-502z" />
<glyph unicode="&#x2013;" horiz-adv-x="1024" d="M106 477l33 148h1024l-33 -148h-1024z" />
<glyph unicode="&#x2014;" horiz-adv-x="2048" d="M106 477l33 148h2048l-33 -148h-2048z" />
<glyph unicode="&#x2018;" horiz-adv-x="454" d="M330 1004l53 241l197 254h108l-156 -254h93l-54 -241h-241z" />
<glyph unicode="&#x2019;" horiz-adv-x="454" d="M315 983l158 254h-92l53 242h242l-53 -242l-199 -254h-109z" />
<glyph unicode="&#x201a;" horiz-adv-x="454" d="M43 -254l156 254h-93l54 242h241l-53 -242l-196 -254h-109z" />
<glyph unicode="&#x201c;" d="M367 1004l53 241l196 254h109l-156 -254h93l-54 -241h-241zM745 1004l54 241l196 254h109l-156 -254h92l-53 -241h-242z" />
<glyph unicode="&#x201d;" d="M354 983l158 254h-92l53 242h242l-53 -242l-199 -254h-109zM733 983l158 254h-92l53 242h242l-54 -242l-198 -254h-109z" />
<glyph unicode="&#x201e;" d="M82 -254l156 254h-93l54 242h241l-53 -242l-197 -254h-108zM461 -254l155 254h-92l54 242h241l-53 -242l-197 -254h-108z" />
<glyph unicode="&#x2022;" horiz-adv-x="1024" d="M305 739q33 154 165 261.5t285.5 107.5t237.5 -107.5t51.5 -261t-166 -262t-287 -108.5t-237.5 108t-49 262z" />
<glyph unicode="&#x2026;" horiz-adv-x="2048" d="M225 0l54 242h233l-53 -242h-234zM907 0l54 242h233l-53 -242h-234zM1589 0l53 242h234l-53 -242h-234z" />
<glyph unicode="&#x202f;" horiz-adv-x="393" />
<glyph unicode="&#x2039;" horiz-adv-x="681" d="M252 553l305 313h203l-309 -315l161 -315h-196z" />
<glyph unicode="&#x203a;" horiz-adv-x="681" d="M172 236l305 315l-170 315h203l166 -313l-307 -317h-197z" />
<glyph unicode="&#x205f;" horiz-adv-x="493" />
<glyph unicode="&#x20ac;" horiz-adv-x="1024" d="M190 473l86 172h76l37 164h-123l84 172h76l31 139q39 174 184 276.5t315 102.5q190 0 295 -117l-116 -233q-68 129 -217 129q-74 0 -131.5 -41t-75.5 -123l-31 -133h371l-84 -172h-324l-37 -164h283l-86 -172h-236l-20 -98q-7 -30 -7 -55q0 -48 26 -77q40 -44 118 -44 q143 0 260 90l-51 -238q-137 -72 -287 -71q-166 0 -261 103q-68 73 -68 181q0 44 12 94l24 115h-123z" />
<glyph unicode="&#x2122;" horiz-adv-x="2027" d="M362 1325l35 154h688l-34 -154h-246l-152 -690h-196l151 690h-246zM1008 635l186 844h279l88 -555l333 555h277l-186 -844h-189l137 618h-4l-362 -618h-142l-88 618h-4l-137 -618h-188z" />
<glyph unicode="&#xe000;" horiz-adv-x="1100" d="M0 1100h1100v-1100h-1100v1100z" />
<glyph unicode="&#xfb01;" d="M127 0l203 913h-135l41 189h135l30 137q57 260 314 260h114l-41 -188h-65q-76 0 -92 -74l-31 -135h131l-41 -189h-131l-203 -913h-229zM567 0l244 1102h229l-243 -1102h-230zM848 1270l47 209h229l-47 -209h-229z" />
<glyph unicode="&#xfb02;" d="M127 0l203 913h-135l41 189h135l30 137q57 260 314 260h114l-41 -188h-65q-76 0 -92 -74l-31 -135h131l-41 -189h-131l-203 -913h-229zM567 0l328 1479h229l-327 -1479h-230z" />
<glyph unicode="&#xfb03;" horiz-adv-x="1593" d="M156 0l202 913h-135l41 189h135l31 137q57 260 313 260h115l-41 -188h-65q-76 0 -93 -74l-30 -135h131l-41 -189h-131l-203 -913h-229zM725 0l203 913h-135l41 189h135l30 137q57 260 314 260h114l-41 -188h-65q-76 0 -92 -74l-31 -135h131l-41 -189h-131l-203 -913h-229 zM1251 0l244 1102h229l-243 -1102h-230zM1532 1270l47 209h229l-47 -209h-229z" />
<glyph unicode="&#xfb04;" horiz-adv-x="1593" d="M156 0l202 913h-135l41 189h135l31 137q57 260 313 260h115l-41 -188h-65q-76 0 -93 -74l-30 -135h131l-41 -189h-131l-203 -913h-229zM725 0l203 913h-135l41 189h135l30 137q57 260 314 260h114l-41 -188h-65q-76 0 -92 -74l-31 -135h131l-41 -189h-131l-203 -913h-229 zM1251 0l328 1479h229l-327 -1479h-230z" />
</font>
</defs>
</svg>
